# xmcd
#
# Track frame offsets:
#	150
#	34651
#	65993
#	106951
#	156509
#	184966
#	208100
#	227244
#	244631
#	257991
#	273062
#
# Disc length: 3997 seconds
#
# Revision: 1
# Processed by: cddbd v1.5.2PL0 Copyright (c) Steve Scherf et al.
# Submitted via: CDmax 2.0
#
DISCID=a30f9b0b
DTITLE=Eric Clapton - The Road To Osaka 1st Night (disc1)
DYEAR=2006
DGENRE=Blues
TTITLE0=Pretending
TTITLE1=I Shot the Sheriff
TTITLE2=Got to Get Better in a Little While
TTITLE3=Old Love
TTITLE4=Tell the Truth
TTITLE5=Motherless Children
TTITLE6=Key to the Highway
TTITLE7=Outside Woman Blues
TTITLE8=San Francisco Bay Blues
TTITLE9=Nobody Knows You When You're Down and out
TTITLE10=Running on Faith
EXTD=Eric Clapton\tguitar, vocals\nDoyle Bramhall II\tguitar\nDerek Trucks\tg
EXTD=uitar\nChris Stainton\tkeyboards\nTim Carmon\tkeyboards\nWillie Weeks\tb
EXTD=ass\nSteve Jordan\tdrums\nMichelle John\tbacking vocals\nSharon White\tb
EXTD=acking vocals\n\nRecorded live at Osaka Castle Hall, Osaka, Japan on Nov
EXTD=ember 11th, 2006
EXTT0=
EXTT1=
EXTT2=
EXTT3=
EXTT4=
EXTT5=
EXTT6=
EXTT7=
EXTT8=
EXTT9=
EXTT10=
PLAYORDER=
